<svg width="164" height="72" viewBox="0 0 164 72" fill="none" xmlns="http://www.w3.org/2000/svg">
<path fill-rule="evenodd" clip-rule="evenodd" d="M160.366 22.056C160.589 21.8561 160.786 21.7809 160.935 21.7809C161.157 21.7809 161.306 21.9559 161.306 22.2808C161.306 24.4546 150.576 37.0982 147.436 40.0717C144.865 42.5204 143.035 44.0947 141.972 44.0947C141.626 44.0947 141.403 43.9198 141.403 43.4949C141.403 41.8707 143.826 37.5728 143.826 37.5728V37.4481L139.351 41.4458C138.313 42.3704 137.052 42.7953 135.915 42.7953C133.838 42.7953 132.033 41.1461 132.033 37.3481V16.9835C132.033 16.1341 132.602 15.709 133.319 15.709C133.739 15.709 134.233 15.8842 134.728 16.184C137.868 18.2078 141.947 22.0309 145.087 27.2534C145.582 28.0779 145.779 28.9025 145.779 29.727C145.779 32.3756 143.678 35.0491 141.502 37.4481V37.5979L160.366 22.056Z" fill="#E57200"/>
<path fill-rule="evenodd" clip-rule="evenodd" d="M38.096 41.3137V43.8881C38.096 44.25 37.9228 44.399 37.4084 44.5013C36.6287 44.6566 35.6454 44.7537 34.7019 44.7537C32.2909 44.7537 31.5008 44.0872 31.5008 42.9398C31.5008 42.4814 31.6364 42.1331 31.8955 41.8739C32.2786 41.4903 32.9677 41.3137 34.0036 41.3137H38.096ZM41.5749 47.5584C42.4354 47.2097 42.7385 46.6737 42.7385 45.6212V38.5389C42.7385 35.7389 42.2515 34.1139 41.0744 32.9801C39.8139 31.7664 37.7605 31.2148 34.4488 31.2148C32.6584 31.2148 31.0328 31.335 29.8778 31.5659C28.721 31.7972 28.3473 32.3364 28.3473 33.4147C28.3473 34.0723 28.4037 34.8958 28.4785 35.3973C28.5213 35.6831 28.6763 35.778 29.0467 35.7251C30.857 35.4656 32.478 35.3182 33.988 35.3182C35.9359 35.3182 36.9347 35.4433 37.4983 35.8719C37.9366 36.2052 38.096 36.7395 38.096 37.608V38.1714C36.6723 37.9867 35.0611 37.8786 33.9128 37.8786C31.2066 37.8786 29.2922 38.4037 28.1319 39.5081C27.2294 40.3668 26.7422 41.6215 26.7422 43.1228C26.7422 46.4787 29.1164 48.6352 34.5714 48.6352C37.3508 48.6352 39.9979 48.1966 41.5749 47.5584Z" fill="white"/>
<path fill-rule="evenodd" clip-rule="evenodd" d="M83.1628 38.4838C83.1628 37.1738 83.3485 36.5767 83.7605 36.1322C84.2069 35.6511 84.9819 35.4383 86.2015 35.4383C86.6657 35.4383 87.3774 35.4845 88.1583 35.5453C88.5453 35.5759 88.6724 35.4549 88.7363 35.1415C88.8167 34.7482 88.8868 34.0423 88.8868 33.4528C88.8868 32.5174 88.617 31.9938 87.9208 31.6918C87.3308 31.4355 86.2123 31.2148 84.813 31.2148C82.9847 31.2148 81.3521 31.6577 80.2143 32.6831C79.1588 33.6348 78.5205 35.0632 78.5205 37.6029V47.8126C78.5205 48.1536 78.7236 48.2795 78.995 48.2795H83.1628V38.4838Z" fill="white"/>
<path fill-rule="evenodd" clip-rule="evenodd" d="M50.6942 31.569V26.623H46.9346C46.2607 26.623 46.0518 26.8995 46.0518 27.4973V42.5514C46.0518 44.7793 46.5512 46.079 47.4905 47.0105C48.5391 48.0504 50.0645 48.6337 52.1263 48.6337C53.69 48.6337 55.2432 48.2601 56.4384 47.7376C57.3618 47.3338 57.6865 46.9452 57.6865 46.3362C57.6865 46.1013 57.6328 45.8381 57.5477 45.544C57.4288 45.1331 57.1933 44.4096 56.9978 43.9709C56.9094 43.7722 56.8201 43.6763 56.6493 43.6763C56.5905 43.6763 56.5085 43.6917 56.3878 43.7266C55.1723 44.0797 53.8183 44.3564 52.9041 44.3564C52.0556 44.3564 51.5307 44.1884 51.1949 43.8407C50.8278 43.4602 50.6942 42.8752 50.6942 41.9258V35.7653H54.9971C55.655 35.7653 56.0117 35.5991 56.223 35.221C56.4206 34.8678 56.5046 34.329 56.5046 33.5674C56.5046 33.0028 56.4462 32.2842 56.3763 31.928C56.3246 31.6646 56.189 31.569 55.8598 31.569H50.6942Z" fill="white"/>
<path fill-rule="evenodd" clip-rule="evenodd" d="M75.2733 31.5703H71.5166C70.8429 31.5703 70.6316 31.847 70.6316 32.4446V41.1911C70.6316 42.3202 70.3897 43.0453 69.8998 43.5345C69.3843 44.049 68.5946 44.3472 67.5242 44.3472C66.4539 44.3472 65.6642 44.049 65.1485 43.5345C64.659 43.0453 64.4167 42.3202 64.4167 41.1911V31.5703H60.6633C59.9894 31.5703 59.7773 31.847 59.7773 32.4446V41.8006C59.7773 43.9138 60.3854 45.464 61.5019 46.5818C62.8382 47.9198 64.9027 48.635 67.5242 48.635C70.146 48.635 72.2104 47.9198 73.5466 46.5818C74.6631 45.464 75.2733 43.9138 75.2733 41.8006V31.5703Z" fill="white"/>
<path fill-rule="evenodd" clip-rule="evenodd" d="M98.1248 54.8164C101.331 54.8164 103.46 54.0923 104.831 52.6653C106.085 51.3592 106.646 49.4652 106.646 46.9986V39.3731C106.646 36.7614 105.911 34.8674 104.645 33.5562C103.203 32.0619 100.904 31.2129 98.4775 31.2129C93.2398 31.2129 89.9199 34.5219 89.9199 39.9354C89.9199 45.0083 92.5953 48.4118 97.3506 48.4118C99.3537 48.4118 100.943 47.653 102.003 46.4554V47.1787C102.003 48.3498 101.806 49.1562 101.257 49.722C100.599 50.3993 99.2955 50.7001 97.4385 50.7001C96.2101 50.7001 94.6473 50.5443 93.316 50.3521C92.8751 50.2888 92.5896 50.464 92.5133 51.0056C92.4461 51.4798 92.4092 52.1816 92.4092 52.614C92.4092 53.7233 92.7341 54.2151 93.9795 54.4681C95.1062 54.6972 96.7066 54.8164 98.1248 54.8164ZM102.003 39.3238V39.7927C102.003 41.4364 101.668 42.6746 100.917 43.4488C100.332 44.0513 99.4837 44.3991 98.3902 44.3991C95.7758 44.3991 94.6946 42.6136 94.6946 39.9354C94.6946 36.8932 96.2143 35.5015 98.3847 35.5015C99.4642 35.5015 100.386 35.8579 101 36.4638C101.658 37.1137 102.003 38.0813 102.003 39.3238Z" fill="white"/>
<path fill-rule="evenodd" clip-rule="evenodd" d="M23.5961 25.9228V46.0028C23.5961 46.7786 23.4239 47.3194 23.073 47.671C22.5854 48.1599 21.736 48.3509 20.5536 48.3509C19.9651 48.3509 19.228 48.2749 18.6818 48.1125C18.2368 47.9799 17.9777 47.7634 17.6898 47.3748C14.7843 43.4483 10.8592 38.0863 7.48617 33.4839V47.5962C7.48617 48.1105 7.33171 48.2783 6.78223 48.2783H2.62402V28.1975C2.62402 27.4221 2.79625 26.8808 3.14714 26.5293C3.63453 26.0408 4.48414 25.8496 5.66628 25.8496C6.25482 25.8496 6.99214 25.9258 7.53811 26.088C8.01124 26.2291 8.24673 26.4403 8.53007 26.8255C11.1002 30.3186 15.0479 35.7195 18.7328 40.7604V26.5978C18.7328 26.1036 18.9403 25.9228 19.4295 25.9228H23.5961Z" fill="white"/>
<path fill-rule="evenodd" clip-rule="evenodd" d="M112.497 50.3932C111.993 50.3206 111.766 50.6065 111.7 51.0522C111.644 51.4368 111.591 52.1707 111.591 52.6606C111.591 53.6773 111.875 54.2283 113.133 54.4811C114.19 54.6935 115.861 54.8182 117.245 54.8182C120.211 54.8182 122.254 54.0552 123.506 52.6996C124.788 51.3113 125.299 49.317 125.299 46.5011V31.5703H121.459C120.905 31.5703 120.655 31.875 120.655 32.4446V40.577C120.655 41.9113 120.407 42.8183 119.852 43.4287C119.289 44.048 118.412 44.3697 117.32 44.3697C116.338 44.3697 115.616 44.091 115.154 43.5684C114.653 43.003 114.453 42.2138 114.453 40.8699V31.5703H110.632C110.005 31.5703 109.811 31.9315 109.811 32.4126V41.3202C109.811 43.8051 110.378 45.4529 111.504 46.6208C112.601 47.7594 114.228 48.4136 116.376 48.4136C118.276 48.4136 119.814 47.6141 120.655 46.7039V47.1383C120.655 48.2634 120.504 49.1069 120.012 49.6926C119.425 50.3932 118.325 50.724 116.404 50.724C115.152 50.724 113.671 50.5619 112.497 50.3932Z" fill="white"/>
</svg>
