<svg width="286" height="36" viewBox="0 0 286 36" fill="none" xmlns="http://www.w3.org/2000/svg">
<path d="M64.079 16.7857C64.079 22.2875 60.1651 26.747 54.1018 26.747C52.8311 26.7803 51.5668 26.5508 50.3832 26.0721C49.1997 25.5935 48.1208 24.8752 47.21 23.9597C46.2992 23.0442 45.575 21.9498 45.0798 20.741C44.5847 19.5322 44.3287 18.2334 44.3269 16.9209C44.3269 11.1346 48.6929 7.09424 54.2032 7.09424C59.7134 7.09424 64.079 11.2843 64.079 16.7857ZM54.2029 23.039C57.4744 23.039 59.8058 20.2999 59.8058 16.9205C59.8058 13.5411 57.7161 10.802 54.2029 10.802C50.7593 10.802 48.6001 13.5411 48.6001 16.9205C48.6001 20.2999 50.9087 23.039 54.2029 23.039Z" fill="white"/>
<path d="M112.878 16.7857C112.878 22.2875 108.964 26.747 102.901 26.747C101.63 26.7803 100.366 26.5508 99.1825 26.0721C97.9989 25.5935 96.92 24.8752 96.0093 23.9597C95.0985 23.0442 94.3743 21.9498 93.8792 20.741C93.384 19.5322 93.128 18.2334 93.1262 16.9209C93.1262 11.1346 97.4921 7.09424 103.002 7.09424C108.513 7.09424 112.878 11.2843 112.878 16.7857ZM103.002 23.039C106.273 23.039 108.605 20.2999 108.605 16.9205C108.605 13.5411 106.515 10.802 103.002 10.802C99.5583 10.802 97.3991 13.5411 97.3991 16.9205C97.3991 20.2999 99.708 23.039 103.002 23.039Z" fill="white"/>
<path d="M134.955 18.7636C134.955 18.7636 134.955 11.2542 134.955 9.31217C135.317 6.59481 139.214 8.05257 139.214 8.05257V18.1796C139.214 21.3406 141.416 22.8853 144.132 22.8853C146.849 22.8853 149.051 21.3937 149.051 18.1796C149.051 18.1796 149.063 11.26 149.062 9.31796C149.425 6.60069 153.322 8.05837 153.322 8.05837V14.5718C153.876 22.6003 161.691 23.1994 161.691 23.1994C169.472 24.2578 168.787 21.1191 168.787 21.1191C168.586 19.5392 167.387 19.181 165.317 18.9202C164.031 18.7583 162.915 18.6477 162.915 18.6477C154.574 18.1295 155.395 12.7238 155.395 12.7238C155.501 8.15059 160.481 7.45473 160.481 7.45473C162.959 6.97892 165.508 6.97408 167.988 7.44045C174.835 8.84019 171.464 12.0286 170.898 12.21C170.898 12.21 169.074 10.5692 164.808 10.3337C159.554 10.0046 159.647 12.4416 159.647 12.4416C159.476 14.2189 161.793 14.5441 161.793 14.5441L167.424 15.3186C174.076 16.2298 173.266 20.8666 173.266 20.8666C172.829 26.6653 165.796 26.7073 165.796 26.7073C156.178 27.2559 152.557 22.3489 152.557 22.3489C151.209 24.984 148.518 26.7451 144.045 26.7451C138.714 26.7451 134.954 23.808 134.954 18.5387" fill="white"/>
<path d="M74.3629 7.88586C66.7963 8.41189 65.0698 15.2607 65.2539 17.2517C65.1489 20.2599 67.3095 26.695 75.6676 26.6986C76.6839 26.6856 77.6974 26.5913 78.6979 26.4167L78.6974 22.7664C77.7268 22.9204 76.7458 23.0053 75.7625 23.0203C74.9684 23.0484 74.1767 22.9197 73.4351 22.642C72.6934 22.3642 72.0171 21.9431 71.447 21.4041C70.8768 20.865 70.4246 20.2192 70.1175 19.5054C69.8104 18.7916 69.6548 18.0247 69.6601 17.2508C69.6645 16.4796 69.8266 15.717 70.137 15.0075C70.4475 14.2981 70.9 13.656 71.4682 13.1189C72.0364 12.5817 72.7088 12.1602 73.4461 11.879C74.1834 11.5978 74.9709 11.4626 75.7625 11.4813L82.5229 11.4798L82.5395 20.4946C82.5395 20.4946 82.0517 28.1324 91.9644 26.5288V22.8918C86.4677 24.045 86.7646 20.6764 86.7646 20.6764V11.4863H91.9644V7.88026H86.7646V3.62549H82.5395V7.88026L74.3629 7.88586Z" fill="white"/>
<path d="M119.343 32.0551C118.991 34.7432 115.202 33.3012 115.202 33.3012V16.8013C115.442 11.5373 118.592 7.2498 125.078 7.10559C126.365 7.04233 127.652 7.24399 128.858 7.69809C130.064 8.1522 131.164 8.84904 132.09 9.7455C133.016 10.642 133.747 11.719 134.24 12.9097C134.732 14.1005 134.975 15.3796 134.953 16.6679C134.991 22.4196 130.957 26.6954 124.996 26.4429C123.91 26.4148 122.843 26.1501 121.87 25.6672C120.897 25.1843 120.04 24.4949 119.361 23.6471C119.361 23.6471 119.343 30.134 119.343 32.0551ZM124.97 22.8561C128.27 22.8561 130.622 20.1536 130.622 16.8191C130.622 13.4847 128.514 10.7822 124.97 10.7822C121.496 10.7822 119.318 13.4848 119.318 16.8191C119.318 20.1535 121.647 22.8561 124.97 22.8561Z" fill="white"/>
<path d="M194.919 21.7987C194.109 22.7045 193.099 23.4259 191.964 23.9108C190.829 24.3956 189.595 24.6319 188.353 24.6023C187.231 24.6391 186.115 24.4418 185.08 24.0242C184.045 23.6065 183.116 22.9783 182.358 22.1827C180.919 20.5412 180.157 18.4492 180.216 16.3035V15.9657H196.535L196.53 15.8236C196.494 13.5483 195.613 11.3604 194.046 9.65522C193.256 8.82842 192.292 8.17263 191.218 7.73136C190.145 7.29009 188.985 7.07346 187.818 7.09581C182.77 7.09581 179.106 10.9682 179.106 16.3035C179.106 21.7714 182.909 25.5903 188.354 25.5903C189.738 25.6278 191.114 25.3736 192.385 24.8455C193.656 24.3174 194.791 23.5282 195.711 22.5334L195.8 22.4366L195.019 21.686L194.919 21.7987ZM180.318 14.978C180.915 10.7845 183.844 8.08422 187.818 8.08422C188.789 8.06845 189.754 8.24419 190.652 8.60063C191.55 8.95707 192.363 9.48663 193.04 10.1567C194.333 11.4735 195.124 13.1732 195.283 14.978H180.318Z" fill="white"/>
<path d="M214.023 9.44599C213.185 8.6932 212.181 8.09677 211.073 7.69265C209.965 7.28853 208.774 7.08506 207.573 7.09456H207.571C206.37 7.08509 205.18 7.2886 204.071 7.69284C202.963 8.09708 201.959 8.69367 201.121 9.44665C199.578 10.8883 198.858 12.7585 198.858 15.3321V25.5936H200.104V15.3321C200.104 13.0566 200.737 11.4019 202.095 10.1247C202.808 9.48531 203.66 8.97723 204.601 8.63032C205.541 8.28341 206.551 8.1047 207.572 8.1047C208.593 8.1047 209.603 8.28341 210.544 8.63032C211.484 8.97723 212.336 9.48531 213.049 10.1247C214.408 11.4022 215.041 13.0571 215.041 15.3324V25.5939H216.286V15.3321C216.286 12.7585 215.567 10.8887 214.023 9.44599Z" fill="white"/>
<path d="M247.511 7.09457C246.41 7.08482 245.319 7.28823 244.302 7.69249C243.286 8.09675 242.366 8.69346 241.598 9.4467C240.184 10.8884 239.524 12.7586 239.524 15.3322V25.5939H240.666V15.3322C240.666 13.0567 241.246 11.402 242.491 10.1248C243.146 9.48766 243.927 8.98106 244.789 8.6343C245.651 8.28753 246.576 8.10751 247.511 8.10459H247.658V7.09457H247.511Z" fill="white"/>
<path d="M234.423 21.7987C233.613 22.7045 232.604 23.4259 231.468 23.9108C230.333 24.3956 229.099 24.6319 227.857 24.6023C226.736 24.6391 225.619 24.4418 224.584 24.0242C223.549 23.6065 222.62 22.9783 221.862 22.1827C220.423 20.5412 219.661 18.4492 219.72 16.3035V15.9657H236.039L236.034 15.8236C235.998 13.5483 235.117 11.3604 233.55 9.65522C232.76 8.82842 231.796 8.17263 230.722 7.73136C229.649 7.29009 228.49 7.07346 227.322 7.09581C222.274 7.09581 218.61 10.9682 218.61 16.3035C218.61 21.7714 222.413 25.5903 227.858 25.5903C229.242 25.6278 230.618 25.3736 231.889 24.8455C233.16 24.3174 234.295 23.5282 235.216 22.5334L235.304 22.4366L234.523 21.686L234.423 21.7987ZM219.822 14.978C220.419 10.7845 223.348 8.08422 227.322 8.08422C228.293 8.06845 229.258 8.24419 230.156 8.60063C231.054 8.95707 231.867 9.48663 232.544 10.1567C233.837 11.4735 234.628 13.1732 234.787 14.978H219.822Z" fill="white"/>
<path d="M284.778 7.09424L277.696 22.3548L269.758 7.09424H268.572L277.09 23.6481L271.382 36H272.604L286 7.09424H284.778Z" fill="white"/>
<path d="M258.998 7.09487C257.794 7.08025 256.599 7.32073 255.486 7.8017C254.374 8.28267 253.367 8.99406 252.527 9.8927C250.891 11.7264 249.981 14.1366 249.981 16.6395C249.981 19.1424 250.891 21.5527 252.527 23.3864C253.367 24.2851 254.374 24.9965 255.486 25.4775C256.599 25.9585 257.794 26.199 258.998 26.1844C260.523 26.2333 262.029 25.8209 263.334 24.9971C264.638 24.1733 265.685 22.9734 266.348 21.5428V25.4695C266.348 27.6755 266.277 30.1608 265.424 31.7351C264.283 33.8239 262.136 34.9742 259.379 34.9742C257.962 35.0182 256.557 34.6963 255.29 34.0374C254.022 33.3785 252.93 32.4031 252.113 31.1982L252.034 31.0672L251.181 31.7327L251.256 31.8455C252.182 33.1741 253.407 34.2467 254.822 34.9699C256.238 35.6932 257.802 36.0452 259.379 35.9953C262.526 35.9953 264.929 34.7277 266.328 32.3282C267.324 30.5861 267.408 27.8533 267.408 25.4287V16.7583L267.409 16.7079C267.409 16.6851 267.41 16.6624 267.41 16.6396C267.41 11.0198 263.951 7.09487 258.998 7.09487ZM266.343 16.6396C266.343 21.6583 263.323 25.1635 258.998 25.1635C256.868 25.0987 254.846 24.1722 253.362 22.5808C251.877 20.9893 251.047 18.8582 251.047 16.6398C251.047 14.4214 251.877 12.2904 253.362 10.6989C254.846 9.10751 256.868 8.18102 258.998 8.11615C263.323 8.11591 266.343 11.621 266.343 16.6396Z" fill="white"/>
<path d="M26.4419 24.0229C26.8772 21.9394 29.9237 18.9669 30.3056 14.8807C30.803 9.51935 28.1207 0 15.0285 0C1.93629 0 0 9.83367 0 13.9378C0 19.4249 3.98805 22.2627 3.80153 24.2115C3.81929 24.2205 3.83706 24.2384 3.85482 24.2474C3.95252 26.3578 1.75865 26.4836 1.883 27.7857C1.9807 28.8005 4.82297 29.052 6.78591 27.9743C6.47503 28.576 6.03981 29.1238 5.498 29.4292C4.48545 29.9949 3.6683 30.2733 3.6683 30.902C3.6683 31.5306 6.70597 33.1291 9.82358 31.5755C10.7473 31.1175 11.4135 30.6236 11.9197 30.1386C11.9375 30.2464 11.9464 30.3452 11.9642 30.435C12.1152 31.333 12.6303 33.8386 14.8775 33.8386C17.1246 33.8386 17.5776 31.6474 17.9507 30.3452C17.9773 30.2374 18.0128 30.1296 18.0395 30.0219C18.5458 30.5517 19.2563 31.0906 20.26 31.5935C23.3776 33.1471 26.4153 31.5486 26.4153 30.9199C26.4153 30.2913 25.5981 30.0219 24.5856 29.4471C24.0082 29.1238 23.5553 28.5401 23.2444 27.8935C25.2073 29.0969 28.2272 28.8634 28.3249 27.8127C28.4493 26.4836 26.1488 26.3848 26.362 24.1217C26.3798 24.0678 26.4064 24.0498 26.4419 24.0229Z" fill="#FF48D8"/>
<path d="M9.21064 20.9065C11.1777 20.9065 12.7724 19.2942 12.7724 17.3053C12.7724 15.3164 11.1777 13.7041 9.21064 13.7041C7.24356 13.7041 5.64893 15.3164 5.64893 17.3053C5.64893 19.2942 7.24356 20.9065 9.21064 20.9065Z" fill="white"/>
<path d="M9.4503 20.4034C10.8336 20.4034 11.955 19.2696 11.955 17.8709C11.955 16.4722 10.8336 15.3384 9.4503 15.3384C8.06697 15.3384 6.94556 16.4722 6.94556 17.8709C6.94556 19.2696 8.06697 20.4034 9.4503 20.4034Z" fill="url(#paint0_linear_1338_1482)"/>
<path d="M7.99375 17.0987C8.3077 17.0987 8.5622 16.8414 8.5622 16.524C8.5622 16.2065 8.3077 15.9492 7.99375 15.9492C7.6798 15.9492 7.42529 16.2065 7.42529 16.524C7.42529 16.8414 7.6798 17.0987 7.99375 17.0987Z" fill="white"/>
<path d="M20.3755 20.6285C22.1905 20.6285 23.6618 19.1408 23.6618 17.3057C23.6618 15.4706 22.1905 13.9829 20.3755 13.9829C18.5605 13.9829 17.0891 15.4706 17.0891 17.3057C17.0891 19.1408 18.5605 20.6285 20.3755 20.6285Z" fill="white"/>
<path d="M20.3665 20.3859C21.7449 20.3859 22.8623 19.2561 22.8623 17.8624C22.8623 16.4687 21.7449 15.3389 20.3665 15.3389C18.988 15.3389 17.8706 16.4687 17.8706 17.8624C17.8706 19.2561 18.988 20.3859 20.3665 20.3859Z" fill="url(#paint1_linear_1338_1482)"/>
<path d="M19.0786 16.9912C19.3974 16.9912 19.6559 16.7299 19.6559 16.4075C19.6559 16.0851 19.3974 15.8237 19.0786 15.8237C18.7597 15.8237 18.5012 16.0851 18.5012 16.4075C18.5012 16.7299 18.7597 16.9912 19.0786 16.9912Z" fill="white"/>
<path d="M23.9195 10.6601C24.0083 10.696 24.0793 10.7319 24.1593 10.7679C24.2392 10.8038 24.3103 10.8487 24.3902 10.8936C24.4701 10.9385 24.5412 10.9834 24.6211 11.0463C24.7011 11.1091 24.7721 11.163 24.861 11.2708C24.9498 11.3785 24.9231 11.5402 24.8165 11.63C24.7455 11.6929 24.6478 11.7018 24.559 11.6659L24.4613 11.621C24.4435 11.612 24.3813 11.5851 24.328 11.5582C24.2659 11.5402 24.2037 11.5132 24.1326 11.4953C24.0616 11.4773 23.9905 11.4594 23.9195 11.4414C23.8484 11.4234 23.7685 11.4145 23.7063 11.4055C23.4931 11.3785 23.3421 11.181 23.3688 10.9654C23.3954 10.7499 23.5908 10.5972 23.804 10.6242C23.8395 10.6242 23.875 10.6421 23.9017 10.6511L23.9195 10.6601Z" fill="#100030"/>
<path d="M6.22634 11.8003C6.16416 11.8003 6.08423 11.8093 6.01317 11.8183C5.94211 11.8273 5.87106 11.8362 5.8 11.8542C5.72894 11.8722 5.65789 11.8812 5.59571 11.8991C5.53354 11.9171 5.47136 11.944 5.43583 11.962L5.37366 11.9889C5.27596 12.0338 5.16049 11.9889 5.11608 11.8901C5.08943 11.8273 5.09832 11.7464 5.13384 11.6926C5.2049 11.5848 5.27596 11.5219 5.34701 11.468C5.41807 11.4052 5.48913 11.3513 5.56907 11.3064C5.64012 11.2615 5.72006 11.2076 5.79112 11.1717C5.87106 11.1268 5.93323 11.0909 6.02205 11.046L6.03982 11.037C6.23522 10.9382 6.47504 11.028 6.57274 11.2256C6.67044 11.4231 6.58162 11.6656 6.38622 11.7644C6.33292 11.7913 6.27963 11.8003 6.22634 11.8003Z" fill="#100030"/>
<path d="M13.5274 22.9453C13.5807 23.0082 13.6339 23.0441 13.705 23.08C13.7761 23.116 13.856 23.1519 13.9537 23.1878C14.1402 23.2507 14.3623 23.2776 14.5843 23.2686C14.8064 23.2596 15.0373 23.2147 15.2416 23.1339C15.3482 23.098 15.437 23.0531 15.5169 23.0082L15.6058 22.9543C15.6324 22.9363 15.6502 22.9274 15.6768 22.9184L16.0765 22.7118C16.2097 22.649 16.3696 22.7029 16.4318 22.8286C16.4407 22.8555 16.4496 22.8825 16.4584 22.9094C16.4762 23.0531 16.4673 23.2058 16.4229 23.3315C16.414 23.3674 16.4051 23.3944 16.3874 23.4303L16.343 23.5201C16.3163 23.5829 16.2808 23.6278 16.2453 23.6817C16.112 23.8793 15.9433 24.014 15.7745 24.1308C15.4281 24.3553 15.0373 24.481 14.6287 24.499C14.2202 24.5169 13.8027 24.4271 13.4297 24.1846C13.2431 24.0679 13.0744 23.9062 12.9411 23.6907C12.8168 23.4842 12.7457 23.2058 12.7901 22.9453C12.8257 22.7567 13.0122 22.64 13.1987 22.6759C13.2787 22.6939 13.3408 22.7298 13.3852 22.7837L13.5274 22.9453Z" fill="#100030"/>
<defs>
<linearGradient id="paint0_linear_1338_1482" x1="11.8261" y1="17.8719" x2="6.8753" y2="17.8719" gradientUnits="userSpaceOnUse">
<stop/>
<stop offset="0.4481" stop-color="#100030"/>
<stop offset="0.8399" stop-color="#180070"/>
<stop offset="1"/>
</linearGradient>
<linearGradient id="paint1_linear_1338_1482" x1="17.8856" y1="17.8584" x2="22.7318" y2="17.8584" gradientUnits="userSpaceOnUse">
<stop/>
<stop offset="0.4481" stop-color="#100030"/>
<stop offset="0.8399" stop-color="#180070"/>
<stop offset="1"/>
</linearGradient>
</defs>
</svg>
