<svg width="205" height="51" viewBox="0 0 205 51" fill="none" xmlns="http://www.w3.org/2000/svg">
<path d="M14.1383 27.894C14.2156 27.1112 14.3317 26.3283 14.4994 25.5198V25.4941C14.4736 25.4941 14.4478 25.4941 14.4349 25.507C13.2484 25.6225 11.3784 25.7637 9.98557 25.9433C7.56104 26.2642 5.3557 26.585 5.17515 26.8032C4.67218 27.3936 7.99948 27.8299 13.0548 27.8941L14.1383 27.894Z" fill="url(#paint0_linear_1546_1381)"/>
<path d="M39.6087 4.89462C31.6255 4.89462 23.7458 9.3864 18.8837 15.9703C18.8837 15.9703 7.56053 16.7788 6.96706 17.7798C5.18735 21.1808 5.13574 26.8915 5.13574 26.8915V26.8786C5.14864 26.853 5.16154 26.8273 5.17443 26.8016C5.35498 26.5835 7.56032 26.2626 9.98486 25.9418C11.3648 25.7621 13.2477 25.6209 14.4342 25.5054C14.46 25.5054 14.4729 25.5054 14.4987 25.4926C18.4321 25.1076 25.9382 24.5686 30.2196 24.453C40.7305 24.1707 49.7966 24.2477 56.0901 24.53C57.9214 13.5956 50.7252 4.89453 39.6081 4.89453L39.6087 4.89462Z" fill="url(#paint1_linear_1546_1381)"/>
<path d="M56.1035 24.531C49.8228 24.2487 40.7567 24.1588 30.233 24.454C25.9384 24.5695 18.4327 25.1085 14.4992 25.4935C14.4219 25.9299 14.28 26.6486 14.1639 27.5855V27.6368C14.1252 27.9576 14.0994 28.2785 14.0736 28.5993V28.6635C14.0608 28.9715 14.0479 29.2795 14.0479 29.5875C14.0479 29.78 14.0479 29.9725 14.0607 30.165C14.0607 30.3319 14.0607 30.4859 14.0736 30.6399C14.0865 30.9735 14.1123 31.3201 14.1381 31.6537C14.151 31.7436 14.1639 31.8463 14.1768 31.9361C14.2026 32.1928 14.2413 32.4495 14.28 32.7061C14.2929 32.8088 14.3187 32.9114 14.3316 33.0141C14.3703 33.2579 14.4218 33.5018 14.4734 33.7456C14.4992 33.8483 14.5121 33.9381 14.5379 34.028C14.6024 34.2718 14.6669 34.5285 14.7314 34.7723C14.7443 34.8108 14.7572 34.8493 14.7701 34.9007C18.7293 34.5156 23.5912 34.1435 29.3302 33.9125C29.3947 33.9125 31.845 33.8226 31.8708 33.8226C37.1844 33.6558 49.1523 33.7456 52.3892 33.7841C52.9051 33.7841 53.2275 33.797 53.2275 33.797C55.9487 33.8355 57.0578 33.8612 59.8824 34.0152C61.1849 34.0793 63.3515 34.1692 63.4676 34.4515V34.4644C63.4676 34.4772 63.4676 34.4772 63.4547 34.49C65.2473 31.1917 65.2731 25.7374 65.2731 25.7374C65.3763 25.2625 61.9587 24.8005 56.1035 24.531Z" fill="url(#paint2_linear_1546_1381)"/>
<path d="M53.0587 15.4194H55.4316C53.2263 9.13111 47.371 4.88281 39.6205 4.88281C31.6373 4.88281 23.7576 9.38744 18.8955 15.9585C22.3905 15.6376 26.9561 15.3681 31.4307 15.2911C32.3077 15.2783 33.9843 14.919 34.9257 13.5329C36.6797 10.9405 38.4078 8.32225 40.8579 7.44964C40.8966 7.43679 40.9482 7.41114 40.9869 7.39831C44.7269 5.99943 49.6536 9.45149 53.0587 15.4194Z" fill="url(#paint3_linear_1546_1381)"/>
<path d="M52.3878 33.797C49.1507 33.7713 37.1957 33.6686 31.8693 33.8355C31.8435 33.8355 29.4061 33.9253 29.3287 33.9253C23.5897 34.1563 18.7276 34.5156 14.7686 34.9135C16.7804 41.5613 22.7774 46.1172 30.799 46.1172C39.2722 46.1172 47.6418 41.0479 52.3881 33.7966L52.3878 33.797Z" fill="#E4002B"/>
<path d="M52.3878 33.7968C47.6289 41.048 39.2719 46.1174 30.7987 46.1174C26.9813 46.1174 23.6283 45.0907 20.9326 43.294C17.9664 41.3176 15.8126 38.4044 14.7549 34.9137C18.7142 34.5287 23.576 34.1565 29.315 33.9255C29.3924 33.9255 31.8428 33.8357 31.8556 33.8357C37.1949 33.6688 49.1628 33.7587 52.3869 33.7972L52.3878 33.7968Z" fill="url(#paint4_linear_1546_1381)"/>
<path d="M52.3873 33.798C51.5877 33.7851 50.2465 33.7851 48.5958 33.7723C44.7783 33.7467 39.2201 33.7338 35.2605 33.7723C34.3835 34.4782 33.3905 35.5306 32.9262 36.4802C29.8439 41.6649 28.7735 46.7471 19.243 38.9957C19.243 38.9957 17.7212 38.8545 16.6895 39.047C17.7341 40.6384 19.0753 41.9987 20.6487 43.1024C20.7648 43.1794 20.868 43.2436 20.9453 43.2949C21.1259 43.4104 21.2935 43.5259 21.4741 43.6414C24.0663 45.22 27.2259 46.1184 30.7985 46.1184C39.2717 46.1184 47.6411 41.0493 52.3873 33.798Z" fill="url(#paint5_linear_1546_1381)"/>
<path d="M63.4781 34.4525C63.362 34.1702 61.1954 34.0932 59.8929 34.0162C57.0556 33.8622 55.9465 33.8365 53.238 33.798C53.238 33.798 52.9156 33.798 52.3997 33.7852C51.9226 34.5038 51.4196 35.1968 50.8779 35.8771C58.3579 35.6589 63.2721 35.1327 63.4781 34.4525Z" fill="url(#paint6_linear_1546_1381)"/>
<path d="M160.925 29.7936C159.958 24.5962 164.755 18.8337 170.791 17.1782C177.819 15.7666 183.739 18.4616 184.809 23.8261C185.557 29.075 181.495 34.5677 174.685 36.1467C168.25 37.3403 162.047 35.0425 160.925 29.7936ZM169.978 23.4793C167.618 26.1487 167.012 29.6396 168.624 31.2563C170.236 32.8734 173.447 32.0263 175.794 29.3569C178.141 26.6875 178.761 23.1966 177.149 21.5799C175.549 19.9628 172.338 20.8099 169.978 23.4793ZM137.272 22.4654C137.234 21.7596 136.886 21.2334 136.254 20.8997C135.622 20.566 134.693 20.3863 133.494 20.3863H132.269L131.108 25.8148H132.088C133.79 25.8148 135.093 25.5325 136.009 24.9549C136.911 24.3646 137.337 23.5435 137.272 22.4654ZM123.873 35.6841C123.873 35.6841 122.042 35.7611 122.287 34.0286L125.485 19.1156C125.666 18.2558 126.517 17.5627 127.381 17.5627H135.106C136.524 17.5627 137.763 17.6526 138.82 17.8194C139.89 17.9734 140.819 18.2429 141.606 18.6279C142.392 19.0129 142.999 19.5134 143.437 20.1423C143.876 20.7583 144.121 21.6824 144.185 22.6064C144.314 24.6982 143.36 26.3923 141.309 27.6628C139.259 28.9462 136.318 29.4339 132.475 29.4339H130.347L128.993 35.6839L123.873 35.6841ZM94.0046 22.4012C93.953 21.6696 93.6435 21.1563 93.0632 20.8611C92.4828 20.5531 91.6574 20.3991 90.5612 20.3991H88.8202L87.7755 25.2759H89.5037C90.9997 25.2759 92.1346 25.0321 92.9213 24.5187C93.6951 24.0054 94.0562 23.2995 94.0046 22.4012ZM85.5443 35.6841H80.347C79.9859 35.6713 78.6318 35.543 78.851 34.0286L82.0494 19.1156C82.2299 18.2558 83.0811 17.5627 83.9452 17.5627H92.7407C94.0174 17.5627 95.1266 17.6397 96.0809 17.7809C97.0481 17.9221 97.8864 18.1787 98.5957 18.5381C99.305 18.8974 99.7693 19.2311 100.247 19.937C100.737 20.6557 100.853 21.1947 100.917 22.0674C101.072 24.1464 100.169 25.5581 98.312 26.7388C96.5968 27.6372 94.2238 27.7783 93.6564 27.7912C93.6564 27.7912 93.076 27.9195 93.7466 28.0864C93.7466 28.0864 94.572 28.2917 95.2555 28.8949C96.7128 30.0499 97.7833 31.2434 101.085 35.6713H93.2824C93.2824 35.6713 91.9412 32.989 89.1555 28.9979C88.5365 28.1124 87.5305 28.2536 87.1566 28.215L85.5443 35.6841ZM193.564 32.1934H199.87L199.445 34.2083C199.277 35.0296 198.413 35.697 197.575 35.697H187.657C187.296 35.6841 185.942 35.5558 186.161 34.0414L189.36 19.1285C189.54 18.2686 190.391 17.5756 191.255 17.5756H196.737L193.564 32.1934ZM111.892 24.9937H120.171L119.759 26.8931C119.591 27.7273 118.727 28.4459 117.863 28.4459H111.157L110.344 32.1934H118.624L118.198 34.2083C118.031 35.0296 117.166 35.697 116.328 35.697H104.425C104.064 35.6841 102.71 35.5558 102.929 34.0414L106.127 19.1285C106.308 18.2686 107.159 17.5756 108.023 17.5756H121.771L121.358 19.5135C121.178 20.3734 120.326 21.0664 119.462 21.0664H112.743L111.892 24.9937ZM162.627 17.5757L162.215 19.5136C161.97 20.412 161.299 21.0408 160.319 21.0665H159.88C155.947 21.0794 155.702 22.1446 154.941 25.7765L154 30.0886C152.852 35.5813 147.874 35.6843 147.448 35.6843H137.479L137.905 33.7464C138.163 32.7968 138.872 32.2577 139.8 32.1936H142.199C146.133 32.1807 146.378 31.1155 147.139 27.4836L148.08 23.1715C149.267 17.6916 155.263 17.5758 156.179 17.5758L162.627 17.5757Z" fill="white"/>
<defs>
<linearGradient id="paint0_linear_1546_1381" x1="9.76377" y1="25.8766" x2="10.2378" y2="28.5788" gradientUnits="userSpaceOnUse">
<stop stop-color="#D85B13"/>
<stop offset="0.269" stop-color="#E57B0C"/>
<stop offset="0.5447" stop-color="#EF9407"/>
<stop offset="0.7964" stop-color="#F5A304"/>
<stop offset="1" stop-color="#F7A803"/>
</linearGradient>
<linearGradient id="paint1_linear_1546_1381" x1="17.4755" y1="7.3139" x2="45.3049" y2="35.2783" gradientUnits="userSpaceOnUse">
<stop stop-color="#FDCC54"/>
<stop offset="0.0154" stop-color="#FCC94D"/>
<stop offset="0.1364" stop-color="#F7B01C"/>
<stop offset="0.1963" stop-color="#F5A709"/>
<stop offset="0.4906" stop-color="#F5A509"/>
<stop offset="0.6479" stop-color="#F39D09"/>
<stop offset="0.7728" stop-color="#F28F0A"/>
<stop offset="0.8806" stop-color="#EF7C0A"/>
<stop offset="0.9766" stop-color="#EB630B"/>
<stop offset="1" stop-color="#EA5C0B"/>
</linearGradient>
<linearGradient id="paint2_linear_1546_1381" x1="15.9619" y1="21.5292" x2="62.1391" y2="38.4184" gradientUnits="userSpaceOnUse">
<stop stop-color="#A7A5A4"/>
<stop offset="0.0516" stop-color="#C5C4C3"/>
<stop offset="0.1074" stop-color="#DFDEDD"/>
<stop offset="0.1648" stop-color="#F1F0F0"/>
<stop offset="0.2241" stop-color="#FBFBFB"/>
<stop offset="0.2883" stop-color="white"/>
<stop offset="0.5148" stop-color="#FDFDFC"/>
<stop offset="0.6495" stop-color="#F5F4F4"/>
<stop offset="0.7602" stop-color="#E7E6E6"/>
<stop offset="0.8578" stop-color="#D3D2D2"/>
<stop offset="0.9461" stop-color="#BAB9B8"/>
<stop offset="1" stop-color="#A7A5A4"/>
</linearGradient>
<linearGradient id="paint3_linear_1546_1381" x1="22.0911" y1="7.21987" x2="54.1395" y2="18.9413" gradientUnits="userSpaceOnUse">
<stop offset="0.0859" stop-color="#FDCC54"/>
<stop offset="1" stop-color="#F1950A" stop-opacity="0.05"/>
</linearGradient>
<linearGradient id="paint4_linear_1546_1381" x1="33.5862" y1="46.1206" x2="33.5862" y2="33.74" gradientUnits="userSpaceOnUse">
<stop stop-color="#88181E" stop-opacity="0.3"/>
<stop offset="0.4969" stop-color="#B21829" stop-opacity="0"/>
<stop offset="0.6534" stop-color="#AA1827" stop-opacity="0.3111"/>
<stop offset="0.8996" stop-color="#931821" stop-opacity="0.8004"/>
<stop offset="1" stop-color="#88181E"/>
</linearGradient>
<linearGradient id="paint5_linear_1546_1381" x1="26.3121" y1="47.3487" x2="42.2055" y2="26.1537" gradientUnits="userSpaceOnUse">
<stop offset="0.0123" stop-color="#E20334" stop-opacity="0"/>
<stop offset="0.0489" stop-color="#DA0531" stop-opacity="0.041"/>
<stop offset="0.2059" stop-color="#BB0E28" stop-opacity="0.2166"/>
<stop offset="0.3591" stop-color="#A51421" stop-opacity="0.388"/>
<stop offset="0.5056" stop-color="#98181D" stop-opacity="0.5519"/>
<stop offset="0.638" stop-color="#93191C" stop-opacity="0.7"/>
<stop offset="1" stop-color="#95191D"/>
</linearGradient>
<linearGradient id="paint6_linear_1546_1381" x1="57.1803" y1="35.882" x2="57.1803" y2="33.7953" gradientUnits="userSpaceOnUse">
<stop offset="0.006135" stop-color="#D7D8D8"/>
<stop offset="0.1914" stop-color="#D0D1D1"/>
<stop offset="0.4642" stop-color="#BCBDBD"/>
<stop offset="0.7894" stop-color="#9C9D9D"/>
<stop offset="1" stop-color="#838484"/>
</linearGradient>
</defs>
</svg>
