<?xml version="1.0" encoding="utf-8"?>
<!-- Generator: Adobe Illustrator 27.9.0, SVG Export Plug-In . SVG Version: 6.00 Build 0)  -->
<svg version="1.1" id="Capa_1" xmlns="http://www.w3.org/2000/svg" xmlns:xlink="http://www.w3.org/1999/xlink" x="0px" y="0px"
	 viewBox="0 0 2444.7 1063.6" style="enable-background:new 0 0 2444.7 1063.6;" xml:space="preserve">
<style type="text/css">
	.st0{fill:url(#SVGID_1_);}
	.st1{fill:url(#SVGID_00000021823817909933008130000014093970278627770781_);}
	.st2{fill:url(#SVGID_00000070807190096022936540000017308933541815352232_);}
	.st3{fill:url(#SVGID_00000053537619747591925660000016249729954275994248_);}
	.st4{fill:url(#SVGID_00000041984636236685275630000016950221562967332744_);}
	.st5{fill:#FC0103;}
</style>
<linearGradient id="SVGID_1_" gradientUnits="userSpaceOnUse" x1="719.1637" y1="1045.3077" x2="804.9597" y2="952.1256" gradientTransform="matrix(3.9401 0 0 -3.9401 -1629.2616 4418.1851)">
	<stop  offset="0" style="stop-color:#0186F5"/>
	<stop  offset="0.132" style="stop-color:#0186F5"/>
	<stop  offset="0.315" style="stop-color:#35C2B0"/>
	<stop  offset="0.667" style="stop-color:#AAD825"/>
	<stop  offset="1" style="stop-color:#FED700"/>
</linearGradient>
<path class="st0" d="M1245.1,141.1c-40.4,32.2-79.2,74.9-101.7,121.5c-46.2,95.9-20.6,184.1-0.8,241.3c27,77.9,81.7,117.2,146.8,146
	c92.9,41,209.6,43.7,315.7,16.3c37.4-9.6,95.4-29.7,108.1-48.4c13.7-20.3,15.9-59.5-13.6-76.7c-28.7-16.8-31.5-4-117.1,15
	c-59.6,13.2-124.6,15.5-202.7-18.2c-49.3-21.3-82.6-53.9-94-98.5c-32.7-127.9,37.9-175.4,51.7-184L1245.1,141.1z"/>
<linearGradient id="SVGID_00000116934918428022162510000012753290280540523664_" gradientUnits="userSpaceOnUse" x1="649.9526" y1="959.5311" x2="650.6573" y2="1018.0103" gradientTransform="matrix(3.9401 0 0 -3.9401 -1629.2616 4418.1851)">
	<stop  offset="0" style="stop-color:#FF7F00"/>
	<stop  offset="1" style="stop-color:#FE0201"/>
</linearGradient>
<path style="fill:url(#SVGID_00000116934918428022162510000012753290280540523664_);" d="M1342.5,291.7
	c-36.8-4.9-144.6-16.3-257.5-36.3c-174.6-31-380-74-445.5-78.5C513.3,168,492.3,331.9,593,359.9c57,15.9,214-0.8,252.1,74.5
	c11.6,22.9,42.4,109.5,77.2,216.6c13.7,42,124.7,35.4,104-54.1c-11.8-51.1-38.6-189.1-38.6-189.1s318.5,33.8,344.4,36L1342.5,291.7z
	"/>
<linearGradient id="SVGID_00000026871097460848700890000007693620968914330548_" gradientUnits="userSpaceOnUse" x1="736.36" y1="1081.4729" x2="831.0784" y2="1079.6549" gradientTransform="matrix(3.9401 0 0 -3.9401 -1629.2616 4418.1851)">
	<stop  offset="0" style="stop-color:#0186F5"/>
	<stop  offset="0.198" style="stop-color:#0186F5"/>
	<stop  offset="1" style="stop-color:#3156FD"/>
</linearGradient>
<path style="fill:url(#SVGID_00000026871097460848700890000007693620968914330548_);" d="M1510.2,207.4
	c40.4,1.1,110.8,11.5,142.5,32.7l176.7,34.8c1.7-98.1-52.1-150.9-112.4-181.3c-45.8-23.1-109.9-41.9-206.3-37.8
	c-92.1,3.9-189,24.1-266.2,85.7l92.3,114.5C1380.4,228.5,1435.2,205.4,1510.2,207.4L1510.2,207.4z"/>
<linearGradient id="SVGID_00000052098219574251631000000004873974205330578332_" gradientUnits="userSpaceOnUse" x1="845.5625" y1="1033.0537" x2="854.2933" y2="1050.2802" gradientTransform="matrix(3.9401 0 0 -3.9401 -1629.2616 4418.1851)">
	<stop  offset="0" style="stop-color:#8434D5"/>
	<stop  offset="0.854" style="stop-color:#3156FD"/>
	<stop  offset="1" style="stop-color:#3156FD"/>
</linearGradient>
<path style="fill:url(#SVGID_00000052098219574251631000000004873974205330578332_);" d="M1649.9,238.3c0,0,9.3,6,13.3,9.7
	c19.2,17.6,25.6,38.6-32.8,48.3l46.2,142.8c105.1-28.2,151.5-90.2,152.7-165.9L1649.9,238.3z"/>
<linearGradient id="SVGID_00000008856026612080847750000008821761022849884838_" gradientUnits="userSpaceOnUse" x1="826.3572" y1="1028.9165" x2="753.6333" y2="1025.4714" gradientTransform="matrix(3.9401 0 0 -3.9401 -1629.2616 4418.1851)">
	<stop  offset="0" style="stop-color:#8434D5"/>
	<stop  offset="1" style="stop-color:#FE0201"/>
</linearGradient>
<path style="fill:url(#SVGID_00000008856026612080847750000008821761022849884838_);" d="M1632.2,295.9
	c-51.8,8.6-152.1,14.1-290.5-4.2l-10.4,152.1c224.7,19.4,303.7,6.2,347.1-5.4L1632.2,295.9z"/>
<g>
	<path class="st5" d="M528.2,845.5c0,2.7,2.1,4.8,4.7,4.8h42.4v113.2l27.9,0.1V850.2h42.4c2.5,0,4.7-2.1,4.7-4.8V828
		c0-2.7-2.1-4.8-4.7-4.8H532.8c-2.5,0-4.7,2.1-4.7,4.8V845.5z"/>
	<path class="st5" d="M627.6,911.8c0,29.8,25,53,55.9,53c31.2,0,56.2-23.2,56.2-53c0-30-25-53.6-56.2-53.6
		C652.6,858.2,627.6,881.8,627.6,911.8L627.6,911.8z M658.5,911.6c0-14.1,10.8-25.7,25-25.7c14.4,0,25.2,11.6,25.2,25.7
		c0,14.1-10.8,25.5-25.2,25.5C669.3,937,658.5,925.7,658.5,911.6L658.5,911.6z M757.9,933.4c0,23,17.6,32.3,35.4,32.3
		c12.1,0,24.4-1.7,32.3-7.7c12.9-9.8,2.1-29.8-15.5-19.9c-5.2,2.9-13.8,1.4-15.3,0.8c-3.5-1.4-9.7-2.6-9.3-12.6V883h25.9
		c19.9,0,19.6-25.1,0-25.1h-25.9v-34.3l-27.6-0.1v34.4h-13.6V883h13.6V933.4z M836.1,911.4c0,32.5,24.8,53.4,51.5,53.4
		c13.8,0,28.1-5.8,33-13.7v13.8l25.6-0.1v-93.5c0-18.3-25.1-17.4-25.1-1c-4.9-7.9-19.6-12.1-33.3-12.1
		C861.1,858.2,836.1,878.6,836.1,911.4L836.1,911.4z M867.1,911.6c0-14.1,10.8-25.7,25.2-25.7c14.4,0,25.2,11.6,25.2,25.7
		c0,14.1-10.8,25.7-25.2,25.7C877.9,937.2,867.1,925.7,867.1,911.6z M999.2,963.5V835.6c0-16.2-28.9-15.7-28.9,0v127.9L999.2,963.5z
		 M1024.3,821.6c-2.8,0-4.7,2.1-4.7,4.6v132.5c0,2.7,1.9,4.8,4.7,4.8h93.7l0.1-28.6h-66.7v-27.1h52.3c2.8,0,4.7-2.3,4.7-4.8v-18.2
		c0-2.7-1.9-4.8-4.7-4.8h-52.3v-29.8h60.3c2.8,0,4.9-2.1,4.9-4.8v-19c0-2.7-2.1-4.8-4.9-4.8H1024.3z M1212.5,959.3
		c0,2.5,2.3,4.1,4.7,4.1h18.3c2.3,0,4.7-1.7,4.7-4.1v-55.9c0-24.6-14.2-46.9-41.5-46.9c-16.1,0-31.6,4.7-37.8,12
		c0-14.8-24.3-15.5-24.3-1.3v96.4l27.4,0.1v-56.9c0-35.1,48.6-29.5,48.6,0L1212.5,959.3z M1436.3,855.6c-15.1,0-27.4,8.9-33.1,17.8
		v-6.7c0-12.5-23-13.8-23,0.4v96l27,0.3v-48.9c0-14.7,9.9-31,20.5-32.7l10.9-1.8C1456.1,880.1,1453.3,855.6,1436.3,855.6
		L1436.3,855.6z M1508.6,983c-14,0-27.3-0.8-34.5-4.8c-17.2-9.5-27.3,11.4-16.6,17.6c14.5,8.3,21.7,12.5,48.8,12.5
		c34.8,0,53.6-19.2,53.6-47.4v-93.8c0-12.4-24-13.8-24-1.6v6.4c-5.1-7.9-19.7-12.3-33.6-12.3c-26.7,0-50.9,20.3-50.9,52.4
		s23.9,52,52.1,52c13.6,0,24.6-5.8,29.2-12.8v8.7C1532.7,973.4,1524.9,983,1508.6,983L1508.6,983z M1482.2,912.1
		c0-14.1,10.8-25.1,25-25.1c14.4,0,25.2,11,25.2,25.1c0,14.3-10.8,25.1-25.2,25.1C1493,937.2,1482.2,926.4,1482.2,912.1z"/>
	<path class="st5" d="M1596.5,845.6c9,0,16.5-7.7,16.5-16.8c0-9.2-7.5-16.9-16.5-16.9c-9.2,0-16.7,7.7-16.7,16.9
		C1579.8,837.9,1587.3,845.6,1596.5,845.6z M1606.1,963.5c2.3,0,4-1.9,4-4.2v-86.9c0-18.3-27.7-18.3-27.7,0v86.9
		c0,2.3,1.9,4.2,4.2,4.2H1606.1z"/>
	<path class="st5" d="M1682,856.4c-32.4,0-55.8,24.9-55.8,55.7c0,30.9,22.9,54.7,56.2,54.7c23.1,0,36.8-6.8,45.5-18
		c5.3-9.1-7.1-20.3-18.2-13.9c-9.8,6.6-16.5,5.7-26.6,5.7c-12.3,0-23.1-8.4-24.6-21.4h69c4.3,0,5.4-2.4,5.4-4.9v-5.8
		C1732.9,881.7,1715.3,856.4,1682,856.4L1682,856.4z M1705.4,899.9h-46.2c3-11.6,12.5-18.6,23.1-18.6
		C1692.4,881.2,1702.6,887.2,1705.4,899.9L1705.4,899.9z"/>
	<path class="st5" d="M1789.2,855.6c-28.4,0-46,15.1-46,34.2c0,17,11.7,27.5,29,31l17.6,3.7c10.1,1.9,15.4,4.1,15.4,9.2
		c0,4.5-4.8,8.8-14.7,8.8c-10.6,0-21.5-2-28.3-7.8c-15.1-7.8-28.5,8.7-13.5,20c8.8,6,22.7,11.6,40.7,11.6
		c29.3,0,48.4-15.3,48.4-35.5c0-19.6-15-28.2-33.2-31.6l-16.9-3.2c-9-1.7-12.3-4.5-12.3-8.6c0-4.3,5.5-7.7,13.9-7.7
		c9,0,16.6,0.9,23.2,5.2c13.2,7.6,26.8-8.7,14.5-18.9C1820.4,860.1,1810.6,855.6,1789.2,855.6L1789.2,855.6z"/>
	<path class="st5" d="M1312.4,856.4c-32.4,0-55.8,24.9-55.8,55.7c0,30.9,22.9,54.7,56.2,54.7c23.1,0,36.8-6.8,45.4-18
		c5.3-9.1-7.1-20.3-18.2-13.9c-9.8,6.6-16.5,5.7-26.6,5.7c-12.3,0-23.1-8.4-24.6-21.4h69c4.3,0,5.4-2.4,5.4-4.9v-5.8
		C1363.3,881.7,1345.7,856.4,1312.4,856.4L1312.4,856.4z M1335.7,899.9h-46.2c3-11.6,12.5-18.6,23.1-18.6
		C1322.8,881.2,1332.9,887.2,1335.7,899.9L1335.7,899.9z"/>
</g>
</svg>
