<svg width="79" height="69" viewBox="0 0 79 69" fill="none" xmlns="http://www.w3.org/2000/svg">
<g clip-path="url(#clip0_1_745)">
<path d="M15.88 23.794L2.07849 16.028C0.800087 15.3148 0 13.8277 0 12.1928V1.3307C0 0.347986 0.89575 -0.295563 1.66975 0.139267L15.4713 7.90533C16.7497 8.61845 17.5497 10.1056 17.5497 11.7405V22.6026C17.5497 23.5853 16.654 24.2289 15.88 23.794Z" fill="white"/>
<path d="M35.1256 19.3324C34.8125 18.9237 34.4299 18.5845 33.9863 18.3323L20.1848 10.5663C19.4195 10.1314 18.5151 10.775 18.5151 11.7577V22.6198C18.5151 24.246 19.3239 25.7331 20.5936 26.455L28.7423 31.0381L35.1082 19.3237L35.1256 19.3324Z" fill="white"/>
<path d="M17.5497 39.4913V28.6292C17.5497 27.0029 16.741 25.5158 15.4713 24.794L1.66975 17.0279C0.904446 16.5931 0 17.2367 0 18.2194V29.0814C0 30.7077 0.808784 32.1948 2.07849 32.9166L15.88 40.6827C16.6453 41.1175 17.5497 40.474 17.5497 39.4913Z" fill="white"/>
<path d="M23.333 44.2744C23.246 44.3005 23.1677 44.3092 23.0808 44.3092C22.8112 44.3092 22.5416 44.1874 22.3676 43.97C22.1415 43.683 22.098 43.283 22.2807 42.9612L28.2465 31.9861L20.1935 27.4552C19.4282 27.0204 18.5237 27.6639 18.5237 28.6466V39.5087C18.5237 41.1349 19.3325 42.6221 20.6022 43.3439L34.4037 51.1099C35.169 51.5448 36.0735 50.9012 36.0735 49.9185V40.6392L23.333 44.2744Z" fill="white"/>
<path d="M17.5497 56.3802V45.5181C17.5497 43.8919 16.741 42.4047 15.4713 41.6829L1.66975 33.9169C0.904446 33.482 0 34.1256 0 35.1083V45.9703C0 47.5966 0.808784 49.0837 2.07849 49.8055L15.88 57.5716C16.6453 58.0064 17.5497 57.3629 17.5497 56.3802Z" fill="white"/>
<path d="M36.0735 66.8072V55.9451C36.0735 54.3189 35.2647 52.8317 33.995 52.1099L20.1935 44.3439C19.4282 43.909 18.5237 44.5526 18.5237 45.5353V56.3973C18.5237 58.0236 19.3325 59.5107 20.6022 60.2325L34.4037 67.9986C35.169 68.4334 36.0735 67.7899 36.0735 66.8072Z" fill="white"/>
<path d="M58.4151 23.794L44.6136 16.028C43.3352 15.3148 42.5351 13.8277 42.5351 12.1928V1.3307C42.5351 0.347986 43.4308 -0.295563 44.2048 0.139267L58.0063 7.90533C59.2847 8.61845 60.0848 10.1056 60.0848 11.7405V22.6026C60.0848 23.5853 59.1891 24.2289 58.4151 23.794Z" fill="white"/>
<path d="M78.5998 33.0296V22.1675C78.5998 20.5413 77.7911 19.0542 76.5214 18.3323L62.7199 10.5663C61.9546 10.1314 61.0501 10.775 61.0501 11.7577V22.6198C61.0501 24.246 61.8589 25.7331 63.1286 26.455L76.9301 34.221C77.6954 34.6559 78.5998 34.0123 78.5998 33.0296Z" fill="white"/>
<path d="M57.9976 24.794L44.1961 17.0279C43.4308 16.5931 42.5264 17.2367 42.5264 18.2194V27.7074L55.2669 24.0722C55.6234 23.9678 56.0061 24.0983 56.2409 24.3853C56.467 24.6809 56.4931 25.081 56.3105 25.4028L50.1446 36.03L58.4064 40.6827C59.1717 41.1175 60.0761 40.474 60.0761 39.4913V28.6292C60.0761 27.0029 59.2673 25.5158 57.9976 24.794Z" fill="white"/>
<path d="M78.5998 49.9185V39.0565C78.5998 37.4302 77.7911 35.9431 76.5214 35.2213L62.7199 27.4552C61.9546 27.0204 61.0501 27.6639 61.0501 28.6466V39.5087C61.0501 41.1349 61.8589 42.6221 63.1286 43.3439L76.9301 51.1099C77.6954 51.5448 78.5998 50.9012 78.5998 49.9185Z" fill="white"/>
<path d="M57.9976 41.6827L49.6141 36.9604L43.0917 48.2052C43.4569 48.8835 43.9787 49.4401 44.6223 49.8053L58.4238 57.5714C59.1891 58.0062 60.0935 57.3627 60.0935 56.38V45.5179C60.0935 43.8916 59.2847 42.4045 58.015 41.6827H57.9976Z" fill="white"/>
<path d="M78.5998 66.8072V55.9451C78.5998 54.3189 77.7911 52.8317 76.5214 52.1099L62.7199 44.3439C61.9546 43.909 61.0501 44.5526 61.0501 45.5353V56.3973C61.0501 58.0236 61.8589 59.5107 63.1286 60.2325L76.9301 67.9986C77.6954 68.4334 78.5998 67.7899 78.5998 66.8072Z" fill="white"/>
<path d="M52.971 27.0726C52.8666 26.9509 52.7014 26.89 52.5449 26.9422L40.2392 30.7339V15.8279C40.2392 15.6453 40.1174 15.4887 39.9435 15.4453C39.7696 15.4018 39.5869 15.48 39.5 15.6366L26.0463 40.448C25.9681 40.5871 25.9854 40.7611 26.0898 40.8828C26.1855 41.0046 26.3507 41.0567 26.5072 41.0133L26.5855 40.9872L41.0654 34.6821C41.2306 34.6126 41.4219 34.6647 41.535 34.8039C41.6393 34.9517 41.6393 35.1518 41.5263 35.2909L38.6303 38.7782C38.4216 39.0304 38.3085 39.3522 38.2998 39.674L38.2216 51.2405C38.2216 51.4144 38.3346 51.5709 38.5085 51.6231C38.5433 51.6318 38.5781 51.6405 38.6129 51.6405C38.7521 51.6405 38.8825 51.5709 38.9521 51.4492L52.9971 27.5161C53.0754 27.377 53.0667 27.2031 52.9623 27.0726H52.971Z" fill="#F7C30D"/>
</g>
<defs>
<clipPath id="clip0_1_745">
<rect width="78.5999" height="68.1379" fill="white"/>
</clipPath>
</defs>
</svg>
