<svg width="57" height="58" viewBox="0 0 57 58" fill="none" xmlns="http://www.w3.org/2000/svg">
<g clip-path="url(#clip0_422_367)">
<path d="M6.02221 54.6279H22.0993V43.1695C22.0993 42.3063 22.8965 41.814 23.7539 41.814H33.2394C34.0968 41.814 34.8203 42.3063 34.8203 43.1695V54.6279H50.8974V22.2558H6.02221V54.6279ZM47.5547 37.5584C47.5547 38.4216 46.858 39.1163 46.0073 39.1163H39.7238C38.8664 39.1163 38.1764 38.4149 38.1764 37.5584V27.867C38.1764 27.0037 38.8731 26.3091 39.7238 26.3091H46.0073C46.8647 26.3091 47.5547 27.0105 47.5547 27.867V37.5584ZM47.5547 51.7212C47.5547 52.5844 46.858 53.2791 46.0073 53.2791H39.7238C38.8664 53.2791 38.1764 52.5777 38.1764 51.7212V42.0298C38.1764 41.1665 38.8731 40.4719 39.7238 40.4719H46.0073C46.8647 40.4719 47.5547 41.1733 47.5547 42.0298V51.7212ZM32.8174 37.5584C32.8174 38.4216 32.1207 39.1163 31.27 39.1163H24.9865C24.129 39.1163 23.4391 38.4149 23.4391 37.5584V27.867C23.4391 27.0037 24.1357 26.3091 24.9865 26.3091H31.27C32.1274 26.3091 32.8174 27.0105 32.8174 27.867V37.5584ZM18.7499 37.5584C18.7499 38.4216 18.0532 39.1163 17.2025 39.1163H10.919C10.0616 39.1163 9.3716 38.4149 9.3716 37.5584V27.867C9.3716 27.0037 10.0683 26.3091 10.919 26.3091H17.2025C18.0599 26.3091 18.7499 27.0105 18.7499 27.867V37.5584ZM18.7499 51.7212C18.7499 52.5844 18.0532 53.2791 17.2025 53.2791H10.919C10.0616 53.2791 9.3716 52.5777 9.3716 51.7212V42.0298C9.3716 41.1665 10.0683 40.4719 10.919 40.4719H17.2025C18.0599 40.4719 18.7499 41.1733 18.7499 42.0298V51.7212Z" fill="white"/>
<path d="M4.58197 19.5581H52.6056H53.3626L48.3385 2.69768H8.65484L3.63074 19.5581H4.58197Z" fill="#C52D2F"/>
<path d="M56.8929 20.5833L50.9711 0.957674C50.7769 0.296744 50.174 0 49.4907 0H7.50269C6.81941 0 6.21652 0.296744 6.02225 0.957674L0.0670286 20.7654C-0.073646 21.2374 0.0134383 21.487 0.308185 21.8849C0.602932 22.2828 1.05845 22.2558 1.55416 22.2558H2.67956V56.4219C2.67956 57.2851 3.73797 58 4.58871 58H52.6123C53.4698 58 54.2602 57.2851 54.2602 56.4219V22.2558H55.4593C56.3168 22.2558 57.0067 21.777 57.0067 20.9205C57.0067 20.7249 56.9733 20.7586 56.9063 20.5833H56.8929ZM50.8975 54.6279H34.8204V43.1695C34.8204 42.3063 34.0902 41.814 33.2394 41.814H23.754C22.8965 41.814 22.0993 42.3063 22.0993 43.1695V54.6279H6.02225V22.2558H50.9041V54.6279H50.8975ZM25.442 44.5116H31.471V54.6279H25.442V44.5116ZM48.3385 2.69767L53.3626 19.5581H3.63078L8.65488 2.69767H48.3385Z" fill="black"/>
<path d="M44.8752 43.8372H41.5258V49.907H44.8752V43.8372Z" fill="#C8F1DE"/>
<path d="M47.5547 42.023C47.5547 41.1598 46.858 40.4651 46.0073 40.4651H39.7238C38.8664 40.4651 38.1764 41.1665 38.1764 42.023V51.7144C38.1764 52.5777 38.8731 53.2723 39.7238 53.2723H46.0073C46.8647 53.2723 47.5547 52.5709 47.5547 51.7144V42.023ZM41.5258 43.8372H44.8752V49.907H41.5258V43.8372Z" fill="black"/>
<path d="M15.4005 43.8372H12.721V49.907H15.4005V43.8372Z" fill="#C8F1DE"/>
<path d="M18.7499 42.023C18.7499 41.1598 18.0532 40.4651 17.2025 40.4651H10.919C10.0616 40.4651 9.3716 41.1665 9.3716 42.023V51.7144C9.3716 52.5777 10.0683 53.2723 10.919 53.2723H17.2025C18.0599 53.2723 18.7499 52.5709 18.7499 51.7144V42.023ZM12.721 43.8372H15.4005V49.907H12.721V43.8372Z" fill="black"/>
<path d="M44.8752 29H41.5258V35.7442H44.8752V29Z" fill="#C8F1DE"/>
<path d="M47.5547 27.8602C47.5547 26.997 46.858 26.3023 46.0073 26.3023H39.7238C38.8664 26.3023 38.1764 27.0037 38.1764 27.8602V37.5516C38.1764 38.4149 38.8731 39.1095 39.7238 39.1095H46.0073C46.8647 39.1095 47.5547 38.4081 47.5547 37.5516V27.8602ZM41.5258 29H44.8752V35.7442H41.5258V29Z" fill="black"/>
<path d="M15.4005 29H12.721V35.7442H15.4005V29Z" fill="#C8F1DE"/>
<path d="M18.7499 27.8602C18.7499 26.997 18.0532 26.3023 17.2025 26.3023H10.919C10.0616 26.3023 9.3716 27.0037 9.3716 27.8602V37.5516C9.3716 38.4149 10.0683 39.1095 10.919 39.1095H17.2025C18.0599 39.1095 18.7499 38.4081 18.7499 37.5516V27.8602ZM12.721 29H15.4005V35.7442H12.721V29Z" fill="black"/>
<path d="M30.1379 29H26.7885V35.7442H30.1379V29Z" fill="#C8F1DE"/>
<path d="M32.8174 27.8602C32.8174 26.997 32.1207 26.3023 31.2699 26.3023H24.9865C24.129 26.3023 23.4391 27.0037 23.4391 27.8602V37.5516C23.4391 38.4149 24.1357 39.1095 24.9865 39.1095H31.2699C32.1274 39.1095 32.8174 38.4081 32.8174 37.5516V27.8602ZM26.7885 29H30.1379V35.7442H26.7885V29Z" fill="black"/>
<path d="M31.4776 44.5116H25.4487V54.6279H31.4776V44.5116Z" fill="#C8F1DE"/>
</g>
<defs>
<clipPath id="clip0_422_367">
<rect width="57" height="58" fill="white"/>
</clipPath>
</defs>
</svg>
