<svg xmlns="http://www.w3.org/2000/svg" width="153" height="27" viewBox="0 0 153 27" fill="none">
  <path d="M108.523 0.949113C108.242 0.369099 107.648 0 106.996 0C106.344 0 105.755 0.369099 105.469 0.949113L102.06 7.92509L94.4453 9.04293C93.809 9.13785 93.2787 9.58076 93.0825 10.1871C92.8863 10.7935 93.0454 11.4632 93.5014 11.9114L99.0266 17.3477L97.7222 25.0302C97.6161 25.6629 97.8813 26.3062 98.4062 26.6806C98.9311 27.055 99.6258 27.1024 100.198 26.8019L107.001 23.19L113.805 26.8019C114.377 27.1024 115.072 27.0603 115.597 26.6806C116.122 26.301 116.387 25.6629 116.281 25.0302L114.971 17.3477L120.496 11.9114C120.952 11.4632 121.117 10.7935 120.915 10.1871C120.714 9.58076 120.189 9.13785 119.552 9.04293L111.933 7.92509L108.523 0.949113Z" fill="#EFAC16"/>
  <path d="M140.523 0.949113C140.242 0.369099 139.648 0 138.996 0C138.344 0 137.755 0.369099 137.469 0.949113L134.06 7.92509L126.445 9.04293C125.809 9.13785 125.279 9.58076 125.083 10.1871C124.886 10.7935 125.045 11.4632 125.501 11.9114L131.027 17.3477L129.722 25.0302C129.616 25.6629 129.881 26.3062 130.406 26.6806C130.931 27.055 131.626 27.1024 132.198 26.8019L139.001 23.19L145.805 26.8019C146.377 27.1024 147.072 27.0603 147.597 26.6806C148.122 26.301 148.387 25.6629 148.281 25.0302L146.971 17.3477L152.496 11.9114C152.952 11.4632 153.117 10.7935 152.915 10.1871C152.714 9.58076 152.189 9.13785 151.552 9.04293L143.933 7.92509L140.523 0.949113Z" fill="#EFAC16"/>
  <path d="M77.5233 0.949113C77.2423 0.369099 76.6484 0 75.9962 0C75.344 0 74.7554 0.369099 74.4691 0.949113L71.0596 7.92509L63.4453 9.04293C62.809 9.13785 62.2787 9.58076 62.0825 10.1871C61.8863 10.7935 62.0454 11.4632 62.5014 11.9114L68.0266 17.3477L66.7222 25.0302C66.6161 25.6629 66.8813 26.3062 67.4062 26.6806C67.9311 27.055 68.6258 27.1024 69.1984 26.8019L76.0015 23.19L82.8046 26.8019C83.3772 27.1024 84.0718 27.0603 84.5968 26.6806C85.1217 26.301 85.3869 25.6629 85.2808 25.0302L83.9711 17.3477L89.4963 11.9114C89.9523 11.4632 90.1166 10.7935 89.9152 10.1871C89.7137 9.58076 89.1887 9.13785 88.5524 9.04293L80.9328 7.92509L77.5233 0.949113Z" fill="#EFAC16"/>
  <path d="M46.5233 0.949113C46.2423 0.369099 45.6484 0 44.9962 0C44.344 0 43.7554 0.369099 43.4691 0.949113L40.0596 7.92509L32.4453 9.04293C31.809 9.13785 31.2787 9.58076 31.0825 10.1871C30.8863 10.7935 31.0454 11.4632 31.5014 11.9114L37.0266 17.3477L35.7222 25.0302C35.6161 25.6629 35.8813 26.3062 36.4062 26.6806C36.9311 27.055 37.6258 27.1024 38.1984 26.8019L45.0015 23.19L51.8046 26.8019C52.3772 27.1024 53.0718 27.0603 53.5968 26.6806C54.1217 26.301 54.3869 25.6629 54.2808 25.0302L52.9711 17.3477L58.4963 11.9114C58.9523 11.4632 59.1166 10.7935 58.9152 10.1871C58.7137 9.58076 58.1887 9.13785 57.5524 9.04293L49.9328 7.92509L46.5233 0.949113Z" fill="#EFAC16"/>
  <path d="M15.5233 0.949113C15.2423 0.369099 14.6484 0 13.9962 0C13.344 0 12.7554 0.369099 12.4691 0.949113L9.0596 7.92509L1.44526 9.04293C0.808967 9.13785 0.278721 9.58076 0.0825299 10.1871C-0.113661 10.7935 0.0454125 11.4632 0.501424 11.9114L6.02659 17.3477L4.72218 25.0302C4.61614 25.6629 4.88126 26.3062 5.4062 26.6806C5.93115 27.055 6.62577 27.1024 7.19843 26.8019L14.0015 23.19L20.8046 26.8019C21.3772 27.1024 22.0718 27.0603 22.5968 26.6806C23.1217 26.301 23.3869 25.6629 23.2808 25.0302L21.9711 17.3477L27.4963 11.9114C27.9523 11.4632 28.1166 10.7935 27.9152 10.1871C27.7137 9.58076 27.1887 9.13785 26.5524 9.04293L18.9328 7.92509L15.5233 0.949113Z" fill="#EFAC16"/>
</svg>
