<svg xmlns="http://www.w3.org/2000/svg" width="150" height="27" viewBox="0 0 150 27" fill="none">
  <path d="M111.523 0.949113C111.242 0.369099 110.648 0 109.996 0C109.344 0 108.755 0.369099 108.469 0.949113L105.06 7.92509L97.4453 9.04293C96.809 9.13785 96.2787 9.58076 96.0825 10.1871C95.8863 10.7935 96.0454 11.4632 96.5014 11.9114L102.027 17.3477L100.722 25.0302C100.616 25.6629 100.881 26.3062 101.406 26.6806C101.931 27.055 102.626 27.1024 103.198 26.8019L110.001 23.19L116.805 26.8019C117.377 27.1024 118.072 27.0603 118.597 26.6806C119.122 26.301 119.387 25.6629 119.281 25.0302L117.971 17.3477L123.496 11.9114C123.952 11.4632 124.117 10.7935 123.915 10.1871C123.714 9.58076 123.189 9.13785 122.552 9.04293L114.933 7.92509L111.523 0.949113Z" fill="#EFAC16"/>
  <path d="M79.5233 0.949113C79.2423 0.369099 78.6484 0 77.9962 0C77.344 0 76.7554 0.369099 76.4691 0.949113L73.0596 7.92509L65.4453 9.04293C64.809 9.13785 64.2787 9.58076 64.0825 10.1871C63.8863 10.7935 64.0454 11.4632 64.5014 11.9114L70.0266 17.3477L68.7222 25.0302C68.6161 25.6629 68.8813 26.3062 69.4062 26.6806C69.9311 27.055 70.6258 27.1024 71.1984 26.8019L78.0015 23.19L84.8046 26.8019C85.3772 27.1024 86.0718 27.0603 86.5968 26.6806C87.1217 26.301 87.3869 25.6629 87.2808 25.0302L85.9711 17.3477L91.4963 11.9114C91.9523 11.4632 92.1166 10.7935 91.9152 10.1871C91.7137 9.58076 91.1887 9.13785 90.5524 9.04293L82.9328 7.92509L79.5233 0.949113Z" fill="#EFAC16"/>
  <path d="M47.5233 0.949113C47.2423 0.369099 46.6484 0 45.9962 0C45.344 0 44.7554 0.369099 44.4691 0.949113L41.0596 7.92509L33.4453 9.04293C32.809 9.13785 32.2787 9.58076 32.0825 10.1871C31.8863 10.7935 32.0454 11.4632 32.5014 11.9114L38.0266 17.3477L36.7222 25.0302C36.6161 25.6629 36.8813 26.3062 37.4062 26.6806C37.9311 27.055 38.6258 27.1024 39.1984 26.8019L46.0015 23.19L52.8046 26.8019C53.3772 27.1024 54.0718 27.0603 54.5968 26.6806C55.1217 26.301 55.3869 25.6629 55.2808 25.0302L53.9711 17.3477L59.4963 11.9114C59.9523 11.4632 60.1166 10.7935 59.9152 10.1871C59.7137 9.58076 59.1887 9.13785 58.5524 9.04293L50.9328 7.92509L47.5233 0.949113Z" fill="#EFAC16"/>
  <path d="M15.5233 0.949113C15.2423 0.369099 14.6484 0 13.9962 0C13.344 0 12.7554 0.369099 12.4691 0.949113L9.0596 7.92509L1.44526 9.04293C0.808967 9.13785 0.278721 9.58076 0.0825299 10.1871C-0.113661 10.7935 0.0454125 11.4632 0.501424 11.9114L6.02659 17.3477L4.72218 25.0302C4.61614 25.6629 4.88126 26.3062 5.4062 26.6806C5.93115 27.055 6.62577 27.1024 7.19843 26.8019L14.0015 23.19L20.8046 26.8019C21.3772 27.1024 22.0718 27.0603 22.5968 26.6806C23.1217 26.301 23.3869 25.6629 23.2808 25.0302L21.9711 17.3477L27.4963 11.9114C27.9523 11.4632 28.1166 10.7935 27.9152 10.1871C27.7137 9.58076 27.1887 9.13785 26.5524 9.04293L18.9328 7.92509L15.5233 0.949113Z" fill="#EFAC16"/>
  <path d="M142.049 0C141.399 0.00527267 140.808 0.369087 140.526 0.94908L137.097 7.92482L129.451 9.04262C128.812 9.13753 128.28 9.58043 128.083 10.1868C127.886 10.7931 128.046 11.4628 128.503 11.9109L134.051 17.3471L132.742 25.0293C132.635 25.6621 132.901 26.3053 133.428 26.6797C133.956 27.054 134.653 27.1015 135.228 26.801L142.049 23.1892V0ZM149.604 26.996C149.662 27.0013 149.716 27.0013 149.774 26.996H149.604Z" fill="#EFAC16"/>
</svg>
