<svg width="65" height="58" viewBox="0 0 65 58" fill="none" xmlns="http://www.w3.org/2000/svg">
<g clip-path="url(#clip0_422_401)">
<path d="M30.5655 11.2987H14.6657V18.0779H30.5655V11.2987Z" fill="#C8F1DE"/>
<path d="M46.4653 11.2987H34.3512V18.0779H46.4653V11.2987Z" fill="#C8F1DE"/>
<path d="M54.7938 26.3636V3.76624H10.88V8.28572H48.3658C49.3349 8.28572 50.251 8.73766 50.251 9.70182V20.1569C50.251 21.121 49.3349 21.8517 48.3658 21.8517H10.88V26.3712H54.7938V26.3636Z" fill="white"/>
<path d="M34.3512 33.1429H48.8049C49.774 33.1429 51.0082 33.3387 51.0082 34.3029V41.2704C51.0082 42.2345 49.774 42.9351 48.8049 42.9351H34.3512V46.7013H54.7938V29.3766H34.3512V33.1429Z" fill="#9696A0"/>
<path d="M17.6942 29.3766H14.6657V46.7013H17.6942V29.3766Z" fill="#9696A0"/>
<path d="M47.2225 36.1558H34.3512V39.1688H47.2225V36.1558Z" fill="#C8F1DE"/>
<path d="M59.5335 50.4675H5.47408C4.39138 50.4675 3.50553 51.2735 3.50553 52.3506C3.50553 53.4278 4.39138 54.2338 5.47408 54.2338H59.5335C60.6162 54.2338 61.502 53.4278 61.502 52.3506C61.502 51.2735 60.6162 50.4675 59.5335 50.4675Z" fill="#A9BD34"/>
<path d="M59.5335 46.7013H57.0728V2.07896C57.0728 1.11481 56.9971 0 56.0355 0H8.75248C7.78334 0 7.09435 1.11481 7.09435 2.07896V9.70182C7.09435 10.666 7.78334 11.2987 8.75248 11.2987H11.6372V18.0779H8.75248C7.78334 18.0779 7.09435 19.1852 7.09435 20.1494V27.7722C7.09435 28.7364 7.78334 29.3766 8.75248 29.3766H11.6372V46.7013H5.47408C2.46069 46.7013 0 49.3527 0 52.3507C0 55.3486 2.45312 58 5.47408 58H59.5335C62.5469 58 65.0076 55.3486 65.0076 52.3507C65.0076 49.3527 62.5545 46.7013 59.5335 46.7013ZM59.5335 54.2338H5.47408C4.39138 54.2338 3.50553 53.4278 3.50553 52.3507C3.50553 51.2735 4.39138 50.4675 5.47408 50.4675H59.5335C60.6162 50.4675 61.502 51.2735 61.502 52.3507C61.502 53.4278 60.6162 54.2338 59.5335 54.2338ZM10.88 21.8442H48.3658C49.3349 21.8442 50.251 21.1135 50.251 20.1494V9.69429C50.251 8.73013 49.3349 8.27818 48.3658 8.27818H10.88V3.7587H54.7938V26.3561H10.88V21.8366V21.8442ZM46.4653 11.2987V18.0779H34.3512V11.2987H46.4653ZM30.5655 11.2987V18.0779H14.6657V11.2987H30.5655ZM54.7938 46.7013H34.3512V42.9351H48.8049C49.774 42.9351 51.0082 42.2346 51.0082 41.2704V34.3029C51.0082 33.3387 49.774 33.1429 48.8049 33.1429H34.3512V29.3766H54.7938V46.7013ZM31.3227 46.7013H21.4799V29.3766H31.3227V46.7013ZM34.3512 39.1688V36.1558H47.2225V39.1688H34.3512ZM17.6942 29.3766V46.7013H14.6657V29.3766H17.6942Z" fill="black"/>
</g>
<defs>
<clipPath id="clip0_422_401">
<rect width="65" height="58" fill="white"/>
</clipPath>
</defs>
</svg>
