<svg width="299" height="79" viewBox="0 0 299 79" fill="none" xmlns="http://www.w3.org/2000/svg">
<g clip-path="url(#clip0_1_743)">
<path d="M18.26 27.36L2.39 18.43C0.92 17.61 0 15.9 0 14.02V1.52999C0 0.399994 1.03 -0.340006 1.92 0.159994L17.79 9.08999C19.26 9.90999 20.18 11.62 20.18 13.5V25.99C20.18 27.12 19.15 27.86 18.26 27.36Z" fill="white"/>
<path d="M40.39 22.23C40.03 21.76 39.59 21.37 39.08 21.08L23.21 12.15C22.33 11.65 21.29 12.39 21.29 13.52V26.01C21.29 27.88 22.22 29.59 23.68 30.42L33.05 35.69L40.37 22.22L40.39 22.23Z" fill="white"/>
<path d="M20.18 45.4099V32.9199C20.18 31.0499 19.25 29.3399 17.79 28.5099L1.92 19.5799C1.04 19.0799 0 19.8199 0 20.9499V33.4399C0 35.3099 0.93 37.0199 2.39 37.8499L18.26 46.7799C19.14 47.2799 20.18 46.5399 20.18 45.4099Z" fill="white"/>
<path d="M26.83 50.9099C26.73 50.9399 26.6401 50.9499 26.5401 50.9499C26.2301 50.9499 25.92 50.8099 25.72 50.5599C25.46 50.2299 25.4101 49.7699 25.6201 49.3999L32.48 36.7799L23.22 31.5699C22.34 31.0699 21.3 31.8099 21.3 32.9399V45.4299C21.3 47.2999 22.2301 49.0099 23.6901 49.8399L39.5601 58.7699C40.4401 59.2699 41.48 58.5299 41.48 57.3999V46.7299L26.83 50.9099Z" fill="white"/>
<path d="M20.18 64.8301V52.3401C20.18 50.4701 19.25 48.7601 17.79 47.9301L1.92 39.0001C1.04 38.5001 0 39.2401 0 40.3701V52.8601C0 54.7301 0.93 56.4401 2.39 57.2701L18.26 66.2001C19.14 66.7001 20.18 65.9601 20.18 64.8301Z" fill="white"/>
<path d="M41.48 76.8201V64.3301C41.48 62.4601 40.55 60.7501 39.09 59.9201L23.22 50.9901C22.34 50.4901 21.3 51.2301 21.3 52.3601V64.8501C21.3 66.7201 22.2301 68.4301 23.6901 69.2601L39.5601 78.1901C40.4401 78.6901 41.48 77.9501 41.48 76.8201Z" fill="white"/>
<path d="M67.1699 27.36L51.2999 18.43C49.8299 17.61 48.9099 15.9 48.9099 14.02V1.52999C48.9099 0.399994 49.9399 -0.340006 50.8299 0.159994L66.6999 9.08999C68.1699 9.90999 69.0899 11.62 69.0899 13.5V25.99C69.0899 27.12 68.0599 27.86 67.1699 27.36Z" fill="white"/>
<path d="M90.38 37.98V25.49C90.38 23.62 89.45 21.91 87.99 21.08L72.12 12.15C71.24 11.65 70.2 12.39 70.2 13.52V26.01C70.2 27.88 71.13 29.59 72.59 30.42L88.46 39.35C89.34 39.85 90.38 39.11 90.38 37.98Z" fill="white"/>
<path d="M66.6899 28.5099L50.8199 19.5799C49.9399 19.0799 48.8999 19.8199 48.8999 20.9499V31.8599L63.5499 27.6799C63.9599 27.5599 64.3999 27.7099 64.6699 28.0399C64.9299 28.3799 64.9599 28.8399 64.7499 29.2099L57.6599 41.4299L67.1599 46.7799C68.0399 47.2799 69.0799 46.5399 69.0799 45.4099V32.9199C69.0799 31.0499 68.1499 29.3399 66.6899 28.5099Z" fill="white"/>
<path d="M90.38 57.3999V44.9099C90.38 43.0399 89.45 41.3299 87.99 40.4999L72.12 31.5699C71.24 31.0699 70.2 31.8099 70.2 32.9399V45.4299C70.2 47.2999 71.13 49.0099 72.59 49.8399L88.46 58.7699C89.34 59.2699 90.38 58.5299 90.38 57.3999Z" fill="white"/>
<path d="M66.6901 47.93L57.05 42.5L49.55 55.43C49.97 56.21 50.5701 56.85 51.3101 57.27L67.18 66.2C68.06 66.7 69.1 65.96 69.1 64.83V52.34C69.1 50.47 68.17 48.76 66.71 47.93H66.6901Z" fill="white"/>
<path d="M90.38 76.8201V64.3301C90.38 62.4601 89.45 60.7501 87.99 59.9201L72.12 50.9901C71.24 50.4901 70.2 51.2301 70.2 52.3601V64.8501C70.2 66.7201 71.13 68.4301 72.59 69.2601L88.46 78.1901C89.34 78.6901 90.38 77.9501 90.38 76.8201Z" fill="white"/>
<path d="M60.91 31.13C60.79 30.99 60.6 30.92 60.42 30.98L46.27 35.34V18.2C46.27 17.99 46.13 17.81 45.93 17.76C45.73 17.71 45.52 17.8 45.42 17.98L29.95 46.51C29.86 46.67 29.88 46.87 30 47.01C30.11 47.15 30.3 47.21 30.48 47.16L30.57 47.13L47.22 39.88C47.41 39.8 47.63 39.86 47.76 40.02C47.88 40.19 47.88 40.42 47.75 40.58L44.42 44.59C44.18 44.88 44.05 45.25 44.04 45.62L43.95 58.92C43.95 59.12 44.08 59.3 44.28 59.36C44.32 59.37 44.36 59.38 44.4 59.38C44.56 59.38 44.71 59.3 44.79 59.16L60.94 31.64C61.03 31.48 61.02 31.28 60.9 31.13H60.91Z" fill="#F7C30D"/>
</g>
<path d="M270.647 56.1359L281.495 23.8799H288.119L298.967 56.1359L298.391 56.9999H295.079L292.343 48.6479H277.271L274.535 56.9999H271.223L270.647 56.1359ZM278.471 44.9999H291.143L285.383 27.5279H284.231L278.471 44.9999Z" fill="white"/>
<path d="M261.351 56.9999V23.8799H265.383V56.9999H261.351Z" fill="white"/>
<path d="M230.648 56.9999V23.8799H246.344C251.24 23.8799 253.688 26.3279 253.688 31.2239V36.5039C253.688 40.6639 251.912 43.0319 248.36 43.6079L254.648 56.0399L254.12 56.9999H250.712L244.04 43.8479H234.68V56.9999H230.648ZM234.68 40.1999H246.392C248.568 40.1999 249.656 39.1119 249.656 36.9359V30.7919C249.656 28.6159 248.568 27.5279 246.392 27.5279H234.68V40.1999Z" fill="white"/>
<path d="M197.054 56.1359L207.902 23.8799H214.526L225.374 56.1359L224.798 56.9999H221.486L218.75 48.6479H203.678L200.942 56.9999H197.63L197.054 56.1359ZM204.878 44.9999H217.55L211.79 27.5279H210.638L204.878 44.9999Z" fill="white"/>
<path d="M174.773 56.9999V23.8799H178.805V53.3519H194.933V56.9999H174.773Z" fill="white"/>
<path d="M140.684 49.6559V31.2239C140.684 26.3279 143.132 23.8799 148.028 23.8799H159.26C164.156 23.8799 166.604 26.3279 166.604 31.2239V49.6559C166.604 54.5519 164.156 56.9999 159.26 56.9999H148.028C143.132 56.9999 140.684 54.5519 140.684 49.6559ZM144.716 50.0879C144.716 52.2639 145.804 53.3519 147.98 53.3519H159.308C161.484 53.3519 162.572 52.2639 162.572 50.0879V30.7919C162.572 28.6159 161.484 27.5279 159.308 27.5279H147.98C145.804 27.5279 144.716 28.6159 144.716 30.7919V50.0879Z" fill="white"/>
<path d="M111.88 55.3199V53.3519H126.664C128.84 53.3519 129.928 52.2639 129.928 50.0879V46.1999C129.928 44.3759 129.112 43.3039 127.48 42.9839L117.16 40.8719C113.64 40.1679 111.88 37.8159 111.88 33.8159V31.2239C111.88 26.3279 114.328 23.8799 119.224 23.8799H130.84L133 25.5599V27.5279H119.176C117 27.5279 115.912 28.6159 115.912 30.7919V34.0559C115.912 35.8799 116.728 36.9519 118.36 37.2719L128.68 39.3359C132.2 40.0399 133.96 42.4079 133.96 46.4399V49.6559C133.96 54.5519 131.512 56.9999 126.616 56.9999H114.04L111.88 55.3199Z" fill="white"/>
<defs>
<clipPath id="clip0_1_743">
<rect width="90.38" height="78.35" fill="white"/>
</clipPath>
</defs>
</svg>
